<?xml version="1.0" standalone="no"?><!DOCTYPE svg PUBLIC "-//W3C//DTD SVG 1.1//EN" "http://www.w3.org/Graphics/SVG/1.1/DTD/svg11.dtd"><svg t="1773207409373" class="icon" viewBox="0 0 1024 1024" version="1.1" xmlns="http://www.w3.org/2000/svg" p-id="2968" xmlns:xlink="http://www.w3.org/1999/xlink" width="200" height="200"><path d="M360.000536 61.765501C341.792922 65.434445 322.366604 70.869266 253.887436 91.520725 205.383862 106.196672 192.74843 114.075338 168.020276 145.188773 159.866972 155.378257 137.179332 187.849861 137.179332 189.20803 137.179332 189.480522 134.733341 193.69239 131.879642 198.44701 122.505532 213.938287 111.365501 237.441257 106.338389 252.250231 100.766207 268.962358 99.000416 287.983157 101.854029 299.803302 107.153719 322.357914 127.532708 336.759223 153.891459 336.759223 193.698891 336.759223 242.339784 310.537769 300.897668 257.414705L311.224471 248.038406 314.620965 251.299728C320.735943 256.869721 341.385257 281.325341 352.119725 295.591477 364.620027 311.898084 378.341178 332.682571 385.814325 346.405868 392.064475 357.820493 403.476955 379.963149 403.476955 380.645452 403.476955 380.915798 398.584973 384.99245 392.607314 389.61194 348.450738 424.392217 307.282992 488.114575 286.496359 553.737941L282.419707 566.375562 273.588392 566.375562C261.768248 566.375562 240.57395 570.857733 228.481313 575.747484 223.181666 577.923128 214.350351 582.677877 209.052849 586.346864 203.618028 589.878425 197.910716 593.682692 196.415228 594.498022 194.65154 595.585844 188.401389 596.263856 180.655751 596.263856 166.797259 596.263856 146.418313 598.84502 130.249024 602.514007 120.467227 604.68742 99.5454 612.025479 97.369755 613.928632 96.826917 614.469325 102.941851 615.69232 110.957879 616.507715 124.136192 618.138268 172.096928 626.969626 185.002749 630.368266L190.167223 631.72429 184.73236 638.519489C177.666879 647.485913 170.601397 662.29493 166.797259 675.880779L163.673278 686.887825 151.172976 693.273149C144.242668 696.804817 133.375173 703.462569 126.85253 708.082166 114.897212 716.505773 95.468748 734.440809 96.826917 735.663955 97.234539 736.071556 104.16489 733.625565 112.178729 730.091751 120.196859 726.559998 132.28735 721.530783 139.08034 718.9517 160.8196 710.528114 186.770729 700.881469 187.586059 700.881469 187.993724 700.881469 188.401389 708.082166 188.401389 716.778265 188.401389 734.03323 190.574888 743.134892 198.318381 759.982191 202.530228 769.221172 210.275844 780.363305 211.634013 779.140309 212.041678 778.597471 212.857009 773.570316 213.264674 767.998176L213.942685 757.808692 220.057663 767.047673C226.987971 777.646967 248.725108 800.604954 263.534082 812.834909 285.545856 831.177696 319.648121 852.77966 360.13571 874.111277 378.61367 883.757922 380.379504 884.978772 383.505652 890.821258 401.846294 924.515857 432.00929 950.061445 464.208338 959.298279 479.427188 963.647423 508.229741 963.647423 523.448526 959.298279 550.075434 951.68996 576.977109 932.669161 595.727647 908.211396L602.520551 899.382226 634.449317 888.647759C673.306159 875.469445 686.759196 870.169798 710.399528 859.029811 737.571442 845.984525 772.896702 824.112215 784.989339 812.699736 786.484827 811.339421 789.608829 808.350592 792.189993 805.906747L796.809484 801.557603 796.401818 809.303241 795.994153 817.046734 805.370452 807.26277C817.868608 794.221775 826.427432 776.96681 832.812756 752.103525 835.258747 742.45688 834.851082 742.864545 840.558394 745.173217 848.166714 748.299366 895.992276 771.939655 906.046586 777.644822 910.80125 780.225986 915.01522 782.129139 915.422886 781.721473 916.643736 780.498478 904.415926 765.417012 893.408966 754.547371 887.296134 748.569798 877.379142 740.010953 871.128991 735.526572L859.986858 727.373268 859.986858 719.086937C859.986858 708.895222 854.279546 685.257164 849.117217 674.65787 846.808545 669.63286 845.993215 666.506712 846.943718 666.23422 850.477531 665.148543 882.813963 662.565233 904.145579 661.749817L927.240885 660.801545 919.087581 656.317185C900.476593 645.990425 871.536656 636.208607 848.439206 632.269209L836.20925 630.230948 826.972416 621.399697C810.395462 605.502836 789.065991 595.585844 761.891888 590.828993 753.738585 589.470824 746.810422 588.112698 746.675185 587.840142 746.4028 587.705033 745.179762 580.36706 743.956766 571.808236 739.337276 541.510131 730.505961 507.407931 721.539472 484.99053 711.892827 461.212965 693.552185 429.149026 679.693822 412.029234 677.247724 408.905188 675.209441 405.643953 675.209441 404.556087 675.209441 401.702517 692.599536 370.318649 702.3835 355.780022 711.214815 342.466535 733.087125 312.846442 734.855105 311.760765 735.397943 311.3531 740.289925 317.330759 745.859919 324.939078 764.745545 350.617693 793.955827 378.334634 816.102775 391.650266 836.754234 404.013206 852.513712 409.175578 869.49833 409.312896 892.730954 409.583243 909.985919 395.589599 916.371244 371.406472 919.2249 360.944496 919.089727 338.25471 916.371244 320.727253 908.900243 274.397179 884.444623 208.230975 863.791018 178.203216 849.662201 157.824248 843.41205 152.932266 759.310724 97.906049 715.834306 69.375924 702.79123 63.533459 682.274879 63.533459 656.323772 63.533459 637.1678 76.711751 616.379021 108.640517 588.119242 152.116936 567.19529 226.026632 561.76047 302.114119 560.402301 320.59208 560.94514 319.911923 551.843478 313.799091 542.332006 307.411621 530.104196 301.298789 520.730043 298.172641 512.849231 295.591477 512.849231 295.72665 510.810948 279.696826 498.17543 184.180875 459.588848 99.674029 416.382776 72.907591 404.019879 65.299272 392.879806 62.03795 377.663167 61.492966 369.782355 61.357793 361.901543 61.492966 360.000536 61.765501ZM395.868635 97.090719C411.220448 104.563865 428.202921 125.215282 442.063537 152.932266 459.996513 189.0729 471.136501 227.251773 481.600622 288.120476 482.143504 291.381797 481.735795 291.789462 476.843813 292.604793 473.854984 293.147631 471.408993 293.960816 471.408993 294.5058 471.408993 295.048638 473.854984 297.902294 476.981132 300.755951 482.823618 306.463263 486.627778 313.661772 488.258438 322.085422L489.208942 327.249896 477.386652 326.569739C470.866154 326.297247 465.431334 325.754409 465.160988 325.481917 464.888496 325.346743 463.392965 317.330759 461.899666 307.819286 452.931032 251.299728 436.085878 201.708332 415.704765 171.680573 405.380022 156.601295 383.911172 137.03547 377.663167 137.03547 374.674337 137.17281 358.097384 153.342077 322.364458 191.383675 260.410079 257.142213 222.231162 286.217323 177.939435 301.433962 155.927618 309.042282 141.798823 307.54894 133.918011 296.949645 129.706143 291.244478 130.113851 276.84317 135.005833 262.712207 147.368816 226.708935 188.944228 161.763602 211.634013 143.150447 223.048638 133.774148 232.420646 129.972134 279.158386 115.841172 349.130895 94.646852 359.592871 92.063564 374.944684 92.608548 385.951643 93.016213 389.075646 93.559008 395.868635 97.092907ZM705.780081 101.032198C711.079642 103.613362 721.131807 109.593145 728.197353 114.483003 735.26277 119.374985 751.429912 129.972134 763.930214 137.988097 817.32577 172.225557 828.738249 180.921699 838.382749 194.915342 858.358343 224.125625 884.985316 302.521785 887.976291 341.108367 889.606952 361.352161 883.491974 376.296308 872.759652 378.334634 861.752692 380.37296 839.878237 371.541645 821.12993 357.410682 815.014952 352.791192 804.010138 343.009374 796.67431 335.673546 767.326709 306.596291 744.909415 272.901691 708.496397 202.931306 703.404444 193.132816 698.195921 183.395411 692.872028 173.721044 690.018436 168.829084 685.534055 160.540585 682.817717 155.105765 680.236553 149.806139 677.382897 145.051454 676.70274 144.643832 676.024728 144.100951 672.085395 149.263258 667.873527 155.921095 635.672355 208.093656 617.329525 272.358853 611.216779 354.964691 609.85861 373.579971 609.043194 377.926969 607.412533 378.469807 598.443963 381.323464 587.84675 387.98128 581.596599 394.501691 574.260772 402.247415 563.120827 423.441778 561.625297 432.273028L560.94514 436.622172 563.255957 433.225742C564.614126 431.32246 569.913773 425.480039 575.211275 420.180349 600.074646 395.454426 621.541393 395.589599 646.677126 420.860549 670.589843 444.77333 693.414866 489.202398 705.101898 534.579823 708.903998 548.983192 715.969479 586.074372 715.969479 591.10157 715.969479 592.867361 714.881656 593.547518 712.165319 593.547518 706.18766 593.547518 678.608038 598.709847 664.882595 602.378834 650.21094 606.318167 625.890494 615.964812 610.944201 623.708391 598.851564 630.095774 588.391734 637.296429 590.427914 637.976586 591.243288 638.246932 604.966628 635.12293 620.998511 631.046278 666.513256 619.496415 678.878384 617.593284 714.61131 617.185662 753.195746 616.644969 765.15321 618.68115 787.705676 630.095774 795.451315 634.035107 807.814298 643.54658 806.591302 644.632257 806.320956 644.904748 804.145311 644.632257 801.836639 643.952099 799.390648 643.274088 797.489641 643.001596 797.489641 643.409261 797.489641 643.816926 800.47847 647.893578 804.147457 652.513068 812.163442 662.567465 821.810087 678.734607 825.069263 687.293345 827.380081 693.408322 831.591906 712.021456 830.911749 712.836786 830.641402 712.974148 825.612101 711.070867 819.771761 708.624961 813.929275 706.043797 798.032479 700.471658 784.581674 696.261893 731.456464 679.27736 695.045527 672.214024 649.938448 670.175763 624.802628 668.952703 602.250205 670.446045 599.666895 673.572193 597.157394 676.45445 594.667031 679.353186 592.195808 682.268421 578.880262 697.484974 550.077644 703.597806 523.583742 696.804817 510.130748 693.408322 501.709244 689.331606 500.621335 685.664872 500.078583 684.169342 500.078583 678.191683 500.621335 672.349197 501.571925 662.157568 501.709244 661.61473 505.648577 659.986214 512.849231 656.995239 530.511861 645.855252 537.712516 639.877507 549.942385 629.550791 551.573132 620.584302 542.739735 612.703491 522.768368 595.178179 467.471891 593.139853 451.43769 609.171823 445.59514 615.014309 445.322713 621.807298 450.894852 630.366121 454.42652 635.800941 468.420163 649.931904 479.427188 659.170884L484.046656 662.839871 483.366456 673.164463C482.823618 681.045296 482.143504 683.763822 480.105221 685.11976 470.050824 692.593035 436.763889 694.631318 422.090089 688.788832 413.52912 685.392338 404.564777 679.004868 400.353017 673.572193 398.857465 671.53391 396.683966 666.641799 395.325797 662.702552 393.695136 658.083062 392.064475 655.364579 390.298642 655.094232 388.938327 654.82174 372.906358 654.551394 354.565716 654.551394 309.456491 654.414118 275.221199 658.355468 230.249293 668.817594 222.774001 670.583364 216.388677 671.806316 216.11833 671.53391 215.845838 671.398694 217.068834 669.225195 218.699494 667.04955 220.330155 664.740878 221.145486 662.837725 220.73782 662.837725 220.192836 662.837725 213.942685 665.01337 206.877204 667.729707 199.813912 670.310872 193.698891 672.214024 193.291226 671.806316 192.340722 670.853796 204.568532 652.783372 211.49884 645.175095 214.895335 641.370935 223.046493 634.170281 229.431817 629.280509 235.817141 624.253289 242.477102 618.818382 244.107763 617.187808 247.774604 613.518821 247.366939 613.246286 233.78096 611.888117L224.949645 610.937571 230.38232 607.676335C238.535624 602.649266 256.333427 596.671521 268.290891 594.905687 296.821016 590.558689 353.070228 601.291011 398.584973 619.904145 405.242789 622.622628 412.173097 625.068533 413.938866 625.338966L417.062933 626.01908 414.346596 622.077644C404.154966 607.813654 362.989366 585.531534 330.788108 576.69803 323.314962 574.659747 316.251626 572.621421 314.891312 572.080728 312.990305 571.265398 313.260651 569.497419 317.882287 556.181786 335.815263 503.73888 363.397031 459.039466 398.17735 425.750386 411.22255 413.252229 419.236475 407.409744 430.106009 402.384734 436.628673 399.393802 439.074707 398.986094 446.8182 399.531078 451.710182 399.938743 457.82516 401.296912 460.404264 402.519907 467.46966 406.188894 476.028483 414.882933 482.41591 424.529536 485.539955 429.284199 488.258438 433.090504 488.393654 432.953143 489.208942 432.137855 484.859691 408.632653 482.823618 402.382524 481.600622 398.850921 479.289804 393.413954 477.523928 390.427271 475.758137 387.438441 474.262692 384.312293 474.262692 383.634281 474.127476 382.818951 480.5128 381.731129 488.666039 380.915798L503.337759 379.55763 495.186601 373.715144C485.675128 366.784836 465.023712 356.460179 454.018855 353.063684L446.410535 350.617693 456.194499 349.66719C479.560108 347.356372 506.191479 353.063684 530.784353 365.834332 537.306996 369.230827 543.012249 371.676818 543.282509 371.269153 544.235158 370.318649 530.919441 344.232369 523.989175 333.63522 521.135562 329.150903 518.964144 325.346743 519.234555 325.074251 519.507047 324.803905 523.176034 326.569739 527.387859 329.01573 538.120138 335.130708 555.102654 350.890185 568.010621 366.786982 578.609958 379.830122 579.152754 380.37296 583.22726 379.422456 585.673251 379.014791 587.711577 378.469807 587.711577 378.334634 587.84675 378.334634 588.254372 367.464993 588.799485 354.421853 590.972898 298.852798 597.085816 250.892063 606.732376 213.120811 617.874509 170.052058 632.003326 137.44528 649.530783 114.890668 666.242974 93.559008 682.13756 89.619718 705.780081 101.030052ZM382.010165 232.821767C398.857465 253.880892 414.617028 278.47383 427.254563 303.607461 433.639973 316.107763 438.802215 327.385069 438.802215 328.608065 438.802215 329.966234 435.133229 332.004559 427.932574 334.585724 421.817597 336.759223 416.792587 338.25471 416.520159 337.982218 416.384922 337.709726 413.803757 333.090236 410.950144 327.927908 395.325797 299.12529 366.656207 260.673881 342.608253 235.94577L332.283595 225.48594 343.153237 214.071315 353.885559 202.658835 362.446527 210.947312C367.201191 215.566802 376.032506 225.348621 382.010165 232.821767ZM709.311663 268.147028C713.658661 276.027839 717.327647 282.820828 717.327647 283.228494 717.327647 283.636159 712.572984 289.88631 706.728353 297.086964 684.856043 324.258921 667.736251 350.212174 654.83043 376.161135 652.384439 381.053117 650.346113 385.129769 650.21094 385.262797 650.073621 385.400115 647.084792 384.17712 643.688297 382.40914 640.291738 380.645452 636.215151 378.877472 634.58449 378.469807L631.73092 377.791796 635.264733 367.737485C639.476472 356.187687 651.43179 330.238726 660.127932 313.661772 670.319561 294.368481 698.98486 251.434901 700.615564 253.065562 700.88797 253.338054 704.827346 260.131043 709.311663 268.149173ZM432.552064 363.390487C433.77506 363.798152 434.317898 364.748656 433.910233 365.428813 432.824556 367.32982 431.056577 366.922155 430.106009 364.613482 429.290743 362.302665 429.563235 362.167491 432.552064 363.390487ZM349.130895 676.968688C349.130895 677.24118 345.869574 679.549852 342.065414 682.268421 331.46612 689.196497 317.337303 701.424307 313.940808 706.178885L310.951979 710.390881 314.756138 708.897453C328.479436 703.597806 339.619423 699.793646 343.831248 698.978316 348.450738 698.162986 349.266069 698.570586 354.022878 704.005471 366.113368 717.728769 379.564174 747.07637 396.2763 795.987609 414.617028 849.520484 421.412077 865.8228 431.601561 881.174612 449.534538 908.348715 481.735795 922.069866 510.130748 914.871357 525.214424 910.929879 534.996178 904.95222 548.987676 891.09375 564.478996 875.604618 572.632192 862.291132 594.367247 816.911561 621.541393 760.254683 634.176825 738.380271 648.44296 723.706427 652.519612 719.359429 657.546768 715.553124 659.585093 715.010285 664.339714 713.787183 676.159987 716.505773 687.709699 721.260436L696.811361 725.064596 694.637819 721.803275C691.649118 717.048611 674.258894 702.782476 665.97046 697.892639 662.030999 695.71914 658.904936 693.680814 659.177428 693.408322 659.44992 693.13583 668.824074 694.496145 679.964061 696.261893 728.197353 704.142704 800.205978 725.472261 800.205978 731.857542 800.070805 736.884741 793.548162 752.646364 787.705676 761.477679 766.78387 793.676791 722.21963 823.432058 657.546768 848.024996 634.992155 856.583819 601.975567 867.318287 601.027166 866.365638 600.754653 865.957973 601.027166 863.919647 601.842539 861.881321 602.657913 859.842995 603.065535 857.941988 602.793043 857.534323 601.570047 856.448646 593.961728 864.056966 578.880262 881.447104 560.402301 902.778721 553.609269 909.164045 539.478307 918.403025 512.984404 935.930482 479.154674 937.153478 452.795816 921.79952 437.986842 913.103378 427.797401 902.098564 410.27003 876.147457 394.918132 853.187325 381.737673 836.882863 376.167679 833.894034 373.17885 832.398546 373.721688 834.166526 378.748843 843.270333 380.514677 846.531654 381.6025 849.518338 381.330008 849.926003 379.971839 851.148999 335.950436 826.150541 315.163804 812.292071 261.495756 776.421826 229.704309 737.700071 227.258318 705.36364 226.442987 695.989487 226.57816 695.446648 229.704309 694.223717 234.596291 692.185327 278.345201 683.761612 296.821016 681.180513 324.675276 677.511526 349.130895 675.4732 349.130895 676.968688ZM481.600622 737.83739C481.055638 755.227528 480.5128 769.628837 480.240244 769.76401 480.105221 770.036502 475.485645 770.57934 469.915651 770.987006 458.365853 771.939655 451.302517 769.901329 447.768704 764.466508 445.59514 761.070014 437.036381 729.413826 435.405721 718.544099L434.59039 712.429035 449.942203 712.158775C460.676671 711.886283 467.742152 711.070867 473.447319 709.169945 477.931636 707.809567 481.870969 706.451419 482.008287 706.451419 482.278634 706.316289 482.143504 720.582382 481.600622 737.83739ZM505.648577 712.56644C511.355846 715.555269 532.820533 719.902268 541.789167 719.902268 545.593327 719.902268 548.854649 720.037441 548.854649 720.309847 548.854649 720.445106 545.863674 729.548827 542.332006 740.281235 534.586324 763.10834 531.0547 770.851832 526.842875 773.025332 523.581553 774.793311 500.348929 773.840662 498.447922 771.939655 497.902938 771.394671 497.902938 758.894369 498.583052 744.357823 499.263188 729.821405 499.806091 716.233281 499.941221 714.061928 499.941221 709.712848 500.078583 709.712848 505.648577 712.56644ZM540.566172 814.46557C545.050403 815.823738 549.942385 818.542222 553.474139 821.803543 558.636467 826.558206 559.044132 827.643883 558.908959 833.758861 558.77164 842.997841 549.940325 858.349653 536.354347 872.750962 520.185059 889.8729 505.648577 896.120905 487.713519 893.539741 471.003473 891.09375 454.563838 878.185783 445.59514 860.660471 437.986842 845.57686 438.937389 833.894034 448.584034 824.927546 456.872511 817.181907 471.953977 814.328251 485.539955 817.997238L491.517614 819.627898 488.393654 824.382562C486.762951 827.101045 484.997117 830.632712 484.454278 832.398546 483.638948 834.844537 484.724625 834.301699 489.479288 829.54489 504.290408 815.2809 523.854045 809.438414 540.566172 814.46557Z" fill="#f4cf57" p-id="2969"></path><path d="M417.335425 429.013767C392.742487 440.96917 372.771185 473.440775 364.210216 515.696343 361.086213 531.048155 360.408202 552.515031 362.852047 563.657078 363.667377 567.461238 364.482708 570.450068 364.7552 570.179721 365.027692 569.905084 366.248542 562.026418 367.471537 552.787437 371.413016 522.216926 379.156509 499.93472 393.422644 478.467866 407.145941 457.81647 423.85588 446.811592 436.763889 450.07302 442.19871 451.431146 450.894852 460.125057 455.106677 468.413619 464.345657 486.89158 467.604833 506.320044 468.149817 547.080125 468.284947 564.607582 468.692655 579.144064 469.10032 579.416556 470.458489 580.774725 474.399968 572.351032 476.845959 562.841748 479.699615 551.972107 482.278634 520.723498 481.463389 507.270548 479.832643 481.458905 474.940661 461.212965 466.519156 447.354494 457.280176 432.002596 449.264191 426.4305 434.99812 425.480039 426.982071 424.937201 424.943745 425.344866 417.335425 429.013767Z" fill="#f4cf57" p-id="2970"></path><path d="M596.407783 435.671669C588.119242 438.795671 572.494938 454.555149 565.972295 466.240163 555.240016 485.398238 547.901999 511.347199 544.505505 541.507986 542.739735 557.949766 544.370289 576.700219 548.039318 583.900873L549.940325 587.297368 550.620547 581.86259C551.163321 579.008891 552.113824 570.720478 553.066474 563.657078 557.413472 526.701157 572.222446 485.398238 586.62369 470.04428 593.689236 462.571134 602.793043 457.681297 609.993633 457.681297 630.237492 457.681297 649.803318 487.161926 657.003994 528.331818 659.44992 542.733041 659.042255 579.011036 656.188599 588.520277 654.150187 595.313352 655.373268 596.399029 658.226925 590.693862 670.725081 566.781017 671.948012 517.189685 661.080581 485.260919 653.742565 463.523847 640.97196 445.316168 628.064057 437.707849 620.048008 433.088359 605.50938 432.137855 596.407783 435.66948Z" fill="#f4cf57" p-id="2971"></path><path d="M428.612731 516.646782C414.344515 522.896933 403.204463 551.972107 407.416202 572.215902 410.542436 587.975379 418.558421 597.622025 428.205066 597.622025 439.890102 597.622025 448.448947 589.063202 454.561693 570.992863 465.568653 538.250955 450.757533 507.000201 428.612731 516.644701ZM432.281804 530.64049C437.444047 535.25998 433.77506 544.634134 426.574406 544.634134 419.373751 544.634134 417.335425 537.433522 423.177847 531.728313 426.982071 527.786834 428.885223 527.516488 432.279572 530.64049Z" fill="#f4cf57" p-id="2972"></path><path d="M583.22726 526.971396C576.704724 530.912982 570.99945 539.744212 567.740231 550.613938 565.294283 558.492604 564.886618 562.704429 565.429542 573.438897 565.972295 584.851441 566.652452 587.840142 570.456547 595.585844 575.483767 605.775328 580.648241 609.849834 588.52695 609.849834 595.592388 609.849834 599.126202 608.219174 605.50938 601.83385 621.949015 585.259042 623.579676 546.672503 608.362951 531.183393 605.917046 528.737338 602.520551 526.156173 600.754653 525.476016 595.45507 523.439836 587.84675 524.119993 583.22726 526.971396ZM590.700406 540.559628C594.369393 543.956187 594.504502 547.49 591.380563 551.156777 587.576404 555.368602 583.772244 555.911483 579.695592 552.650054 576.841936 550.47662 576.163924 549.118451 576.841936 546.264795 577.792439 542.052927 582.141583 537.841145 585.402905 537.841145 586.761073 537.841145 589.071891 539.064205 590.702616 540.559628Z" fill="#f4cf57" p-id="2973"></path></svg>